HIERARCHY
ROOT joint_Root
{
	OFFSET 0.0 0.0 0.0
	CHANNELS 6 Xposition Yposition Zposition Zrotation Xrotation Yrotation 
	JOINT Hips
	{
		OFFSET -17.1583 93.1646 452.98
		CHANNELS 6 Xposition Yposition Zposition Zrotation Xrotation Yrotation 
		JOINT Spine
		{
			OFFSET 15.7357 0.0 0.0
			CHANNELS 6 Xposition Yposition Zposition Zrotation Xrotation Yrotation 
			JOINT Chest
			{
				OFFSET 8.98455 -0.406207 0.0
				CHANNELS 6 Xposition Yposition Zposition Zrotation Xrotation Yrotation 
				JOINT Neck
				{
					OFFSET 16.3773 0.0 0.0
					CHANNELS 6 Xposition Yposition Zposition Zrotation Xrotation Yrotation 
					JOINT Head
					{
						OFFSET 6.45672 0.0 0.0
						CHANNELS 6 Xposition Yposition Zposition Zrotation Xrotation Yrotation 
						End Site
						{
							OFFSET 0.0 0.0 0.0
						}
					}
				}
				JOINT Shoulder_L
				{
					OFFSET 12.9942 -0.242716 4.98039
					CHANNELS 6 Xposition Yposition Zposition Zrotation Xrotation Yrotation 
					JOINT UpperArm_L
					{
						OFFSET 5.34809 0.0 0.0
						CHANNELS 6 Xposition Yposition Zposition Zrotation Xrotation Yrotation 
						JOINT LowerArm_L
						{
							OFFSET 24.3286 1.87007e-05 0.0
							CHANNELS 6 Xposition Yposition Zposition Zrotation Xrotation Yrotation 
							JOINT Hand_L
							{
								OFFSET 22.2916 0.0 0.0
								CHANNELS 6 Xposition Yposition Zposition Zrotation Xrotation Yrotation 
								End Site
								{
									OFFSET 0.0 0.0 0.0
								}
							}
						}
					}
				}
				JOINT Shoulder_R
				{
					OFFSET 12.9945 -0.242716 -4.98039
					CHANNELS 6 Xposition Yposition Zposition Zrotation Xrotation Yrotation 
					JOINT UpperArm_R
					{
						OFFSET -5.34813 0.0 0.0
						CHANNELS 6 Xposition Yposition Zposition Zrotation Xrotation Yrotation 
						JOINT LowerArm_R
						{
							OFFSET -24.3289 0.000322201 0.0
							CHANNELS 6 Xposition Yposition Zposition Zrotation Xrotation Yrotation 
							JOINT Hand_R
							{
								OFFSET -22.2915 -0.000108084 0.0
								CHANNELS 6 Xposition Yposition Zposition Zrotation Xrotation Yrotation 
								End Site
								{
									OFFSET 0.0 0.0 0.0
								}
							}
						}
					}
				}
			}
		}
		JOINT UpperLeg_L
		{
			OFFSET -2.19248 -6.46944 0.0
			CHANNELS 6 Xposition Yposition Zposition Zrotation Xrotation Yrotation 
			JOINT LowerLeg_L
			{
				OFFSET 39.0811 0.0 -1.23785e-05
				CHANNELS 6 Xposition Yposition Zposition Zrotation Xrotation Yrotation 
				JOINT Foot_L
				{
					OFFSET 40.9854 0.0 -1.26872e-05
					CHANNELS 6 Xposition Yposition Zposition Zrotation Xrotation Yrotation 
					JOINT Toes_L
					{
						OFFSET 11.7543 0.0 0.0
						CHANNELS 6 Xposition Yposition Zposition Zrotation Xrotation Yrotation 
						End Site
						{
							OFFSET 0.0 0.0 0.0
						}
					}
				}
			}
		}
		JOINT UpperLeg_R
		{
			OFFSET -2.19251 6.46944 0.0
			CHANNELS 6 Xposition Yposition Zposition Zrotation Xrotation Yrotation 
			JOINT LowerLeg_R
			{
				OFFSET -39.0811 -0.00228153 -0.0401928
				CHANNELS 6 Xposition Yposition Zposition Zrotation Xrotation Yrotation 
				JOINT Foot_R
				{
					OFFSET -40.9854 0.0 0.0
					CHANNELS 6 Xposition Yposition Zposition Zrotation Xrotation Yrotation 
					JOINT Toes_R
					{
						OFFSET -11.7543 0.0 0.0
						CHANNELS 6 Xposition Yposition Zposition Zrotation Xrotation Yrotation 
						End Site
						{
							OFFSET 0.0 0.0 0.0
						}
					}
				}
			}
		}
	}
}
MOTION
Frames:	5
Frame Time:	0.0333333
0.000000 0.000000 0.000000 0.000000 0.000000 -0.000000 -4.068450 92.718800 3.352790 87.388100 2.313250 0.939942 15.735700 0.000005 -0.000001 53.635000 87.453100 -50.532100 8.984550 -0.406207 -0.000000 -3.569470 -3.325220 6.105540 16.377300 -0.000001 -0.000001 4.670540 2.055810 -1.515050 6.456720 -0.000001 -0.000000 4.625070 4.100360 -1.848860 12.994200 -0.242716 4.980390 -92.909600 9.178080 -72.325800 5.348090 -0.000007 -0.000001 -75.648400 20.524900 2.722860 24.328600 0.000019 0.000005 10.354000 23.682900 -24.458600 22.291600 -0.000001 0.000005 -2.202130 5.052220 6.188150 12.994500 -0.242716 -4.980390 88.245700 5.244180 -71.473500 -5.348130 -0.000001 -0.000004 -65.451700 13.162900 -6.483900 -24.328900 0.000322 -0.000009 1.374590 6.692530 -11.639200 -22.291500 -0.000108 -0.000004 -12.085600 5.184140 3.115200 -2.192480 -6.469440 -0.000000 -169.650000 -3.655220 2.739700 39.081100 -0.000007 -0.000012 0.024592 -0.114240 12.148700 40.985400 -0.000006 -0.000013 -4.290890 14.361100 -69.219200 11.754300 -0.000000 0.000003 -0.000469 0.175184 -9.471010 -2.192510 6.469440 -0.000001 -179.952000 6.938660 -176.535000 -39.081100 -0.002282 -0.040193 0.014762 -0.053385 12.081900 -40.985400 0.000008 0.000006 -4.279100 5.291430 -69.700600 -11.754300 -0.000006 -0.000006 -0.008728 0.261538 -5.950290
0.000000 0.000000 0.000000 0.000000 0.000000 -0.000000 -3.847610 92.733300 3.466620 87.418100 2.655140 0.984650 15.735700 0.000005 -0.000001 48.425400 87.287400 -45.190300 8.984550 -0.406207 -0.000000 -3.592540 -3.918530 6.351390 16.377300 -0.000001 -0.000001 4.541280 2.398670 -1.803170 6.456720 -0.000001 -0.000000 5.093360 4.859230 -3.605480 12.994200 -0.242716 4.980390 -92.884300 9.230080 -72.562000 5.348090 -0.000007 -0.000001 -75.611900 18.127800 3.151220 24.328600 0.000019 0.000005 9.986210 23.238400 -24.049600 22.291600 -0.000001 0.000005 -2.189710 5.061590 5.980320 12.994500 -0.242716 -4.980390 88.297700 4.938160 -70.952200 -5.348130 -0.000001 -0.000004 -63.651500 3.312780 -8.483910 -24.328900 0.000322 -0.000009 0.807591 5.266940 -8.735030 -22.291500 -0.000108 -0.000004 -11.263400 5.151920 3.897280 -2.192480 -6.469440 -0.000000 -169.811000 -3.530940 2.812010 39.081100 -0.000007 -0.000012 0.025326 -0.118106 12.103200 40.985400 -0.000006 -0.000013 -4.088530 14.539900 -69.255500 11.754300 -0.000000 0.000003 -0.000449 0.174875 -9.483540 -2.192510 6.469440 -0.000001 179.738000 7.370590 -176.189000 -39.081100 -0.002282 -0.040193 0.006547 -0.015542 11.674200 -40.985400 0.000008 0.000006 -5.100480 5.512440 -69.294400 -11.754300 -0.000006 -0.000006 -0.008642 0.260859 -5.978020
0.000000 0.000000 0.000000 0.000000 0.000000 -0.000000 -3.584390 92.757600 3.579140 87.424400 2.846160 0.795691 15.735700 0.000005 -0.000001 44.784100 87.261900 -41.494300 8.984550 -0.406207 -0.000000 -3.783760 -4.215690 6.445270 16.377300 -0.000001 -0.000001 4.135030 2.605110 -2.163680 6.456720 -0.000001 -0.000000 5.559610 5.370870 -5.348030 12.994200 -0.242716 4.980390 -92.895100 9.451250 -72.882400 5.348090 -0.000007 -0.000001 -74.758600 16.438800 3.335890 24.328600 0.000019 0.000005 9.709770 23.277400 -23.411900 22.291600 -0.000001 0.000005 -2.468210 5.082080 5.520910 12.994500 -0.242716 -4.980390 88.461100 4.384030 -70.635300 -5.348130 -0.000001 -0.000004 -60.827000 -5.713820 -10.860900 -24.328900 0.000322 -0.000009 0.415520 4.583950 -5.203150 -22.291500 -0.000108 -0.000004 -10.725000 5.149750 3.948560 -2.192480 -6.469440 -0.000000 -169.916000 -3.970250 2.674590 39.081100 -0.000007 -0.000012 0.024914 -0.116448 12.076700 40.985400 -0.000006 -0.000013 -3.930430 15.089800 -69.313900 11.754300 -0.000000 0.000003 -0.000736 0.179204 -9.307690 -2.192510 6.469440 -0.000001 179.464000 7.467120 -175.974000 -39.081100 -0.002282 -0.040193 -0.000401 0.019166 11.036700 -40.985400 0.000008 0.000006 -6.007240 5.705840 -68.760100 -11.754300 -0.000006 -0.000006 -0.008453 0.259362 -6.039190
0.000000 0.000000 0.000000 0.000000 0.000000 -0.000000 -3.338760 92.808000 3.711950 87.466100 3.161400 0.538726 15.735700 0.000005 -0.000001 42.339700 87.272600 -39.104200 8.984550 -0.406207 -0.000000 -3.966300 -4.360280 6.325430 16.377300 -0.000001 -0.000001 3.208770 2.747880 -2.573420 6.456720 -0.000001 -0.000000 5.972860 5.579420 -7.133810 12.994200 -0.242716 4.980390 -92.907800 9.634770 -73.117400 5.348090 -0.000007 -0.000001 -73.450900 15.096200 3.089160 24.328600 0.000019 0.000005 9.401200 23.748900 -22.348800 22.291600 -0.000001 0.000005 -2.262350 5.079690 5.574510 12.994500 -0.242716 -4.980390 88.817000 3.352790 -70.552600 -5.348130 -0.000001 -0.000004 -57.035900 -13.429600 -13.192200 -24.328900 0.000322 -0.000009 0.150715 5.495840 -1.582930 -22.291500 -0.000108 -0.000004 -10.112600 5.138570 4.215120 -2.192480 -6.469440 -0.000000 -170.027000 -4.114530 2.625990 39.081100 -0.000007 -0.000012 0.018284 -0.088658 11.653200 40.985400 -0.000006 -0.000013 -4.401120 15.559400 -68.762700 11.754300 -0.000000 0.000003 -0.000483 0.175395 -9.462440 -2.192510 6.469440 -0.000001 179.162000 7.686690 -175.600000 -39.081100 -0.002282 -0.040193 -0.006572 0.056524 9.945020 -40.985400 0.000008 0.000006 -7.201540 5.793650 -67.816400 -11.754300 -0.000006 -0.000006 -0.007766 0.253780 -6.267170
0.000000 0.000000 0.000000 0.000000 0.000000 -0.000000 -3.110710 92.939300 3.762390 87.598900 3.494600 0.041622 15.735700 0.000005 -0.000001 40.576700 87.413100 -37.572400 8.984550 -0.406207 -0.000000 -4.288220 -4.242370 5.855520 16.377300 -0.000001 -0.000001 2.032120 2.788950 -3.070140 6.456720 -0.000001 -0.000000 5.935700 5.391490 -8.598120 12.994200 -0.242716 4.980390 -92.887400 9.625790 -73.214700 5.348090 -0.000007 -0.000001 -71.931000 13.248700 2.715400 24.328600 0.000019 0.000005 9.288200 24.539700 -21.493300 22.291600 -0.000001 0.000005 -1.476740 5.046140 6.320000 12.994500 -0.242716 -4.980390 89.252200 2.099680 -70.391100 -5.348130 -0.000001 -0.000004 -52.423900 -20.623500 -14.860400 -24.328900 0.000322 -0.000009 -0.000667 4.603510 0.000013 -22.291500 -0.000108 -0.000004 -8.673650 5.117870 4.695390 -2.192480 -6.469440 -0.000000 -170.132000 -4.063010 2.653460 39.081100 -0.000007 -0.000012 0.002619 -0.014384 10.320200 40.985400 -0.000006 -0.000013 -6.258000 16.052500 -67.143900 11.754300 -0.000000 0.000003 -0.000679 0.178369 -9.341620 -2.192510 6.469440 -0.000001 178.746000 8.100920 -175.207000 -39.081100 -0.002282 -0.040193 -0.007937 0.078061 8.221870 -40.985400 0.000008 0.000006 -8.659120 6.078720 -66.372500 -11.754300 -0.000006 -0.000006 -0.007519 0.251729 -6.350930
